<svg width="900" height="600" viewBox="0 0 900 600" fill="none" xmlns="http://www.w3.org/2000/svg">
<g clip-path="url(#clip0_1_3)">
<path d="M579.031 140.012V483.561C579.031 508.621 558.825 529.241 533.567 529.241H518.729C509.573 529.241 501.996 524.165 495.681 517.504C485.579 506.401 480.211 491.809 480.211 476.582V436.93C480.211 421.069 467.267 408.063 451.481 408.063C350.524 408.063 268.681 326.221 268.681 225.263V140.012C268.681 125.737 280.363 114 294.57 114H553.142C567.665 114 579.031 125.737 579.031 140.012Z" fill="#D9D9D9"/>
<path d="M529.229 493.621H185.68C160.619 493.621 140 473.274 140 447.841V432.899C140 423.679 145.075 416.049 151.737 409.691C162.84 399.517 177.432 394.113 192.658 394.113H232.311C248.172 394.113 261.178 381.078 261.178 365.183C261.178 263.521 343.59 181.109 445.252 181.109H529.229C543.503 181.109 555.241 192.872 555.241 207.178V467.552C555.256 470.975 554.594 474.367 553.293 477.533C551.992 480.699 550.077 483.576 547.659 485.999C545.242 488.422 542.368 490.343 539.205 491.651C536.042 492.959 532.652 493.629 529.229 493.621Z" fill="#D9D9D9"/>
<path d="M585 248.515V374.183C585 383.349 592.468 390.892 601.804 390.892H607.288C610.673 390.892 613.473 389.035 615.807 386.598C619.541 382.537 621.525 377.2 621.525 371.63V357.125C621.525 351.323 626.31 346.566 632.144 346.566C669.46 346.566 699.71 316.316 699.71 279V248.515C699.71 243.293 695.392 239 690.141 239H594.569C589.201 239 585 243.293 585 248.515Z" fill="#D9D9D9"/>
<path d="M539.02 154.01H308.692C302.72 154.01 297.878 158.851 297.878 164.824C297.878 170.796 302.72 175.637 308.692 175.637H539.02C544.992 175.637 549.834 170.796 549.834 164.824C549.834 158.851 544.992 154.01 539.02 154.01Z" fill="white"/>
<path d="M443.861 197.265H308.692C302.72 197.265 297.878 202.106 297.878 208.079C297.878 214.051 302.72 218.892 308.692 218.892H443.861C449.833 218.892 454.675 214.051 454.675 208.079C454.675 202.106 449.833 197.265 443.861 197.265Z" fill="white"/>
<path d="M443.321 240.519H309.232C302.961 240.519 297.878 245.602 297.878 251.873V251.874C297.878 258.145 302.961 263.228 309.232 263.228H443.321C449.592 263.228 454.675 258.145 454.675 251.874V251.873C454.675 245.602 449.592 240.519 443.321 240.519Z" fill="white"/>
<path d="M182.714 343.312L194.068 332.499L182.714 321.685L171.359 332.499L182.714 343.312Z" stroke="#E1E4E5" stroke-width="5.861" stroke-linecap="round" stroke-linejoin="round"/>
<path d="M746.722 256.861C746.722 262.863 741.858 267.722 735.849 267.722C729.84 267.722 725 262.839 725 256.861C725 250.859 729.864 246 735.873 246C741.882 246 746.722 250.859 746.722 256.861Z" stroke="#E1E4E5" stroke-width="3.879" stroke-miterlimit="10"/>
<path d="M661.863 270.916C661.863 278.606 655.4 284.832 647.416 284.832C639.432 284.832 633 278.576 633 270.916C633 263.226 639.463 257 647.447 257C655.431 257 661.863 263.226 661.863 270.916Z" stroke="#E1E4E5" stroke-width="5.154" stroke-miterlimit="10"/>
<path d="M669.233 166.561L645.561 190.233C644.699 191.095 644.699 192.493 645.561 193.355L645.561 193.355C646.423 194.217 647.821 194.217 648.682 193.355L672.355 169.683C673.217 168.821 673.217 167.423 672.355 166.562L672.354 166.561C671.492 165.699 670.095 165.699 669.233 166.561Z" fill="#E1E4E5"/>
<path d="M666.916 183.509L660.089 190.336C659.227 191.198 659.227 192.596 660.089 193.458L660.089 193.458C660.951 194.32 662.349 194.32 663.21 193.458L670.038 186.631C670.899 185.769 670.899 184.372 670.038 183.51L670.037 183.509C669.175 182.647 667.778 182.647 666.916 183.509Z" fill="#E1E4E5"/>
<path d="M233.155 246.892L207.679 272.368C206.752 273.295 206.752 274.799 207.679 275.726L207.68 275.727C208.608 276.655 210.111 276.655 211.039 275.727L236.514 250.251C237.442 249.324 237.442 247.82 236.514 246.893L236.514 246.892C235.586 245.964 234.083 245.964 233.155 246.892Z" fill="#E1E4E5"/>
<path d="M230.662 265.132L223.314 272.48C222.387 273.407 222.387 274.911 223.314 275.838L223.315 275.839C224.243 276.767 225.746 276.767 226.674 275.839L234.021 268.492C234.949 267.564 234.949 266.06 234.021 265.133L234.021 265.132C233.093 264.205 231.589 264.205 230.662 265.132Z" fill="#E1E4E5"/>
<path fill-rule="evenodd" clip-rule="evenodd" d="M340.774 265.779C284.861 273.418 241.647 320.881 241.647 378.92C241.647 442.258 292.976 493.621 356.271 493.621H608.443C659.084 493.621 700.142 452.535 700.142 401.86C700.142 351.185 659.084 310.099 608.443 310.099C608.443 234.075 546.868 172.458 470.895 172.458C410.442 172.458 359.228 211.525 340.774 265.779Z" fill="white"/>
<path d="M524.963 367.102L470.895 421.169L416.827 367.102M470.895 274.105V416.844" stroke="#6A0DAD" stroke-width="24.979" stroke-linecap="round" stroke-linejoin="round"/>
<path d="M198.997 459.019C210.127 457.978 220.725 447.403 220.725 447.403C220.725 447.403 208.158 436.952 197.027 437.992C185.897 439.033 177.309 444.582 177.853 450.392C178.398 456.201 187.86 460.063 198.997 459.019Z" fill="#E1E4E5"/>
<path d="M608.497 160.235C601.855 160.105 596.365 165.385 596.235 172.027C596.105 178.669 601.384 184.159 608.027 184.289C614.669 184.419 620.159 179.14 620.289 172.497C620.419 165.855 615.139 160.365 608.497 160.235Z" fill="#E1E4E5"/>
<path d="M219.627 187.687C227.392 182.148 240.133 183.06 240.133 183.06C240.133 183.06 237.853 196.819 230.088 202.358C222.323 207.896 213.683 209.106 210.794 205.053C207.904 200.999 211.856 193.227 219.627 187.687Z" fill="#E1E4E5"/>
<path d="M728.8 329.842C732.73 333.621 732.852 339.87 729.073 343.8C725.294 347.73 719.045 347.853 715.115 344.073C711.185 340.294 711.063 334.045 714.842 330.115C718.621 326.185 724.87 326.063 728.8 329.842Z" fill="#E1E4E5"/>
</g>
<defs>
<clipPath id="clip0_1_3">
<rect width="900" height="600" fill="white"/>
</clipPath>
</defs>
</svg>
