<svg width="900" height="600" viewBox="0 0 900 600" fill="none" xmlns="http://www.w3.org/2000/svg">
<g clip-path="url(#clip0_5_37)">
<path d="M714.99 181.698C696.549 121.508 537.158 43.822 411.234 140.395C352.668 185.313 370.847 217.548 337.126 281.185C317.026 319.114 281.423 355.279 283.802 398.824C285.846 436.414 305.514 470.409 332.121 487.455C391.96 525.789 486.766 532.297 536.329 419.143C585.893 305.989 762.534 336.939 714.99 181.698Z" fill="#D9D9D9"/>
<path d="M349.857 149.812C328.842 205.846 307.809 265.053 269.334 301.748C229.652 339.611 216.883 326.25 206.994 302.219C197.106 278.189 195.646 215.365 250.099 164.807C304.566 114.235 369.517 97.37 349.857 149.812Z" fill="#D9D9D9"/>
<path d="M236.254 237.573L254.75 219.077C255.424 218.403 255.424 217.311 254.75 216.637C254.077 215.964 252.984 215.964 252.311 216.637L233.814 235.134C233.141 235.807 233.141 236.9 233.814 237.573C234.488 238.247 235.58 238.247 236.254 237.573Z" fill="#E1E4E5"/>
<path d="M238.063 224.331L243.397 218.997C244.071 218.323 244.071 217.231 243.397 216.557C242.724 215.884 241.631 215.884 240.958 216.557L235.623 221.892C234.95 222.565 234.95 223.658 235.623 224.331C236.297 225.005 237.389 225.005 238.063 224.331Z" fill="#E1E4E5"/>
<path d="M579.609 483.231L561.113 501.727C560.439 502.401 560.439 503.493 561.113 504.167C561.786 504.84 562.879 504.84 563.552 504.167L582.049 485.67C582.722 484.997 582.722 483.904 582.049 483.231C581.375 482.557 580.283 482.557 579.609 483.231Z" fill="#E1E4E5"/>
<path d="M577.799 496.474L572.465 501.808C571.791 502.482 571.791 503.574 572.465 504.248C573.138 504.921 574.231 504.921 574.904 504.248L580.239 498.913C580.912 498.24 580.912 497.147 580.239 496.474C579.565 495.8 578.473 495.8 577.799 496.474Z" fill="#E1E4E5"/>
<path d="M720.109 130.526L738.605 112.03C739.279 111.356 739.279 110.264 738.605 109.59C737.932 108.917 736.839 108.917 736.166 109.59L717.669 128.087C716.996 128.76 716.996 129.853 717.669 130.526C718.343 131.2 719.435 131.2 720.109 130.526Z" fill="#E1E4E5"/>
<path d="M721.919 117.283L727.253 111.949C727.927 111.275 727.927 110.183 727.253 109.509C726.58 108.836 725.487 108.836 724.814 109.509L719.479 114.844C718.806 115.517 718.806 116.61 719.479 117.283C720.153 117.957 721.245 117.957 721.919 117.283Z" fill="#E1E4E5"/>
<path d="M716.514 177.205V440.186C716.514 454.572 704.846 466.24 690.459 466.24H308.411C294.024 466.24 282.356 454.572 282.356 440.186V177.205C282.356 162.819 294.024 151.151 308.411 151.151H690.444C704.846 151.151 716.514 162.819 716.514 177.205Z" fill="white"/>
<path d="M671.495 171.916H326.375C314.847 171.916 305.501 181.262 305.501 192.79V423.67C305.501 435.198 314.847 444.544 326.375 444.544H671.495C683.023 444.544 692.369 435.198 692.369 423.67V192.79C692.369 181.262 683.023 171.916 671.495 171.916Z" stroke="#6A6A6A" stroke-width="1.07" stroke-dasharray="7.49 12.85"/>
<path opacity="0.3" d="M431.725 316.56C431.725 316.56 431.815 331.499 427.303 340.538C422.791 349.576 421.268 353.042 411.781 356.523C402.294 360.004 281.927 373.196 281.927 373.196V332.545L431.725 316.56Z" fill="black"/>
<path d="M285.885 354.224H410.331C422.148 354.224 431.709 344.647 431.709 332.845V277.136C431.709 265.318 422.133 255.757 410.331 255.757H285.885C274.068 255.757 264.506 265.333 264.506 277.136V332.845C264.506 344.647 274.083 354.224 285.885 354.224Z" fill="white"/>
<path d="M381.125 336.79C396.898 336.79 409.685 324.27 409.685 308.825C409.685 293.38 396.898 280.86 381.125 280.86C365.352 280.86 352.565 293.38 352.565 308.825C352.565 324.27 365.352 336.79 381.125 336.79Z" fill="#6A0DAD"/>
<path d="M754.525 233.832C754.525 233.832 740.739 230.132 735.986 261.737C731.234 293.341 731.2 310.653 731.2 310.653C731.2 310.653 729.454 317.525 724.329 315.119C719.204 312.713 710.382 304 704.401 308.09C698.199 312.335 698.499 320.735 703.552 331.543C708.606 342.352 718.806 366.418 719.722 368.605C720.624 370.741 720.438 374.405 716.685 373.322C712.931 372.239 688.853 358.543 683.043 370.352C677.22 382.165 696.251 409.953 698.27 413.026C700.29 416.099 700.118 417.767 698.795 419.139C697.472 420.51 689.808 415.142 682.805 411.522C675.801 407.901 667.038 404.944 664.253 412.04C661.468 419.135 667.666 442.679 702.08 472.791L718.939 485.7L738.768 477.844C780.174 458.449 792.658 437.54 791.944 429.953C791.23 422.365 781.996 422.778 774.258 424.316C766.52 425.853 757.671 428.884 756.779 427.199C755.888 425.513 756.176 423.87 758.969 421.472C761.763 419.074 787.743 397.655 785.422 384.685C783.104 371.728 756.174 378.215 752.268 378.204C748.365 378.205 749.21 374.639 750.664 372.834C752.15 370.993 768.63 350.69 776.475 341.703C784.322 332.728 786.934 324.731 782.152 318.935C777.546 313.338 766.646 319.282 761.058 320.175C755.471 321.068 755.699 313.97 755.699 313.97C755.699 313.97 760.474 297.325 764.656 265.64C768.837 233.955 754.218 233.763 754.218 233.763" fill="#D9D9D9"/>
<path d="M718.587 481.259C721.741 457.999 726.376 425.904 731.627 390.469C736.87 355.05 741.579 322.976 744.875 299.733C746.509 288.136 747.825 278.74 748.743 272.213C749.197 268.986 749.554 266.471 749.802 264.728C749.923 263.899 750.025 263.253 750.091 262.782C750.168 262.349 750.215 262.116 750.215 262.116C750.215 262.116 750.206 262.339 750.162 262.79C750.109 263.258 750.036 263.91 749.944 264.745C749.725 266.494 749.41 269.011 749.014 272.251C748.202 278.762 746.96 288.179 745.375 299.805C742.221 323.065 737.583 355.147 732.344 390.579C727.105 426.011 722.383 458.088 719.1 481.328" fill="#6A0DAD"/>
<path d="M716.255 320.787C716.303 320.761 716.635 321.18 717.234 321.981C717.831 322.77 718.652 323.938 719.646 325.39C721.636 328.306 724.284 332.393 727.121 336.979C729.883 341.488 732.392 345.571 734.322 348.723C735.19 350.113 735.918 351.292 736.524 352.27C737.05 353.105 737.315 353.584 737.267 353.61C737.219 353.637 736.874 353.221 736.278 352.432C735.695 351.64 734.874 350.472 733.889 349.004C731.921 346.069 729.33 341.939 726.509 337.362L719.229 325.68C718.362 324.291 717.621 323.115 717.015 322.137C716.485 321.289 716.22 320.81 716.255 320.787ZM739.229 353.345C739.117 353.183 747.311 347.346 757.539 340.331C767.764 333.303 776.155 327.743 776.267 327.905C776.379 328.068 768.182 333.892 757.958 340.92C747.72 347.951 739.342 353.508 739.229 353.345ZM728.728 407.394C728.714 407.343 729.239 407.147 730.18 406.813C731.278 406.45 732.63 406.005 734.218 405.47C737.625 404.337 742.338 402.744 747.467 400.806C752.6 398.881 757.189 396.978 760.511 395.579C762.055 394.932 763.363 394.376 764.437 393.923C765.365 393.537 765.893 393.354 765.916 393.389C765.943 393.437 765.451 393.706 764.561 394.178C763.294 394.829 762.012 395.451 760.718 396.046C756.458 398.019 752.126 399.831 747.73 401.478C743.333 403.129 738.879 404.621 734.374 405.95C732.641 406.456 731.23 406.834 730.265 407.078C729.287 407.327 728.742 407.445 728.728 407.394ZM701.473 382.51C701.504 382.474 701.915 382.777 702.65 383.363C703.371 383.953 704.4 384.818 705.664 385.895C708.951 388.716 712.211 391.567 715.446 394.447C718.687 397.323 721.902 400.228 725.092 403.16C726.061 404.049 727.018 404.952 727.961 405.868C728.629 406.513 728.98 406.9 728.949 406.936C728.917 406.972 728.506 406.67 727.772 406.083C727.05 405.493 726.021 404.628 724.757 403.552C721.471 400.731 718.21 397.879 714.975 394.999C711.187 391.631 707.776 388.545 705.342 386.284C704.373 385.395 703.417 384.492 702.473 383.576C701.792 382.933 701.428 382.55 701.473 382.51ZM686.138 429.044C686.17 429.008 686.701 429.402 687.632 430.156C688.657 431.008 689.963 432.087 691.508 433.391C694.762 436.147 699.225 439.982 704.124 444.262C709.023 448.543 713.436 452.446 716.604 455.294C717.85 456.429 719.094 457.566 720.335 458.705C721.199 459.518 721.671 459.997 721.639 460.033C721.608 460.069 721.076 459.675 720.146 458.921C719.12 458.069 717.814 456.99 716.269 455.686C712.037 452.093 707.832 448.469 703.653 444.814C698.755 440.534 694.342 436.631 691.174 433.783C689.928 432.648 688.684 431.511 687.442 430.371C686.566 429.562 686.107 429.08 686.138 429.044ZM720.992 459.052C720.979 459 721.634 458.729 722.818 458.274C724.143 457.782 725.842 457.148 727.88 456.395C732.152 454.797 738.059 452.582 744.5 449.949C750.005 447.704 755.473 445.368 760.901 442.943C762.893 442.066 764.552 441.333 765.84 440.754C767.01 440.248 767.665 439.977 767.692 440.024C767.718 440.072 767.096 440.418 765.963 441.01C764.36 441.84 762.742 442.64 761.109 443.41C755.736 445.972 750.29 448.375 744.776 450.618C739.262 452.864 733.684 454.95 728.049 456.872C725.882 457.604 724.123 458.172 722.903 458.54C721.695 458.905 721.015 459.087 720.992 459.052Z" fill="#6A0DAD"/>
<path d="M214.32 382.038C200.951 395.809 204.431 420.887 204.431 420.887C204.431 420.887 229.586 423.622 242.947 409.839C256.316 396.068 252.845 371.002 252.845 371.002C252.845 371.002 227.689 368.267 214.32 382.038Z" fill="url(#paint0_linear_5_37)"/>
<path fill-rule="evenodd" clip-rule="evenodd" d="M534.719 119.446H537.004C537.557 119.446 538.002 119.896 538.002 120.444V122.729C538.002 123.282 537.552 123.727 537.004 123.727H534.719C534.171 123.727 533.722 123.277 533.722 122.729V120.444C533.722 120.313 533.747 120.183 533.797 120.062C533.847 119.941 533.92 119.831 534.013 119.738C534.106 119.645 534.216 119.572 534.337 119.521C534.458 119.471 534.588 119.446 534.719 119.446ZM542.643 119.446H544.928C545.476 119.446 545.926 119.896 545.926 120.444V122.729C545.926 123.282 545.476 123.727 544.928 123.727H542.643C542.095 123.727 541.645 123.277 541.645 122.729V120.444C541.645 119.896 542.095 119.446 542.643 119.446ZM550.572 119.446H552.857C553.405 119.446 553.854 119.896 553.854 120.444V122.729C553.854 122.994 553.749 123.247 553.562 123.434C553.375 123.621 553.122 123.727 552.857 123.727H550.572C550.024 123.727 549.574 123.277 549.574 122.729V120.444C549.574 120.313 549.599 120.183 549.649 120.062C549.699 119.941 549.773 119.83 549.866 119.738C549.958 119.645 550.069 119.571 550.19 119.521C550.311 119.471 550.441 119.446 550.572 119.446ZM558.496 119.446H560.782C561.33 119.446 561.779 119.896 561.779 120.444V122.729C561.779 122.994 561.674 123.247 561.487 123.434C561.3 123.621 561.046 123.727 560.782 123.727H558.496C557.944 123.727 557.494 123.277 557.494 122.729V120.444C557.497 120.18 557.603 119.927 557.791 119.74C557.978 119.553 558.231 119.448 558.496 119.446ZM566.42 119.446H568.705C569.258 119.446 569.708 119.896 569.708 120.444V122.729C569.708 122.86 569.682 122.99 569.631 123.112C569.58 123.233 569.506 123.343 569.413 123.436C569.32 123.529 569.21 123.602 569.088 123.652C568.967 123.702 568.836 123.727 568.705 123.727H566.42C565.872 123.727 565.422 123.277 565.422 122.729V120.444C565.422 119.896 565.872 119.446 566.42 119.446ZM542.934 128.087H545.219C545.767 128.087 546.217 128.536 546.217 129.084V131.374C546.217 131.922 545.767 132.372 545.219 132.372H542.934C542.669 132.372 542.416 132.267 542.229 132.079C542.041 131.892 541.936 131.639 541.936 131.374V129.089C541.935 128.958 541.961 128.827 542.011 128.706C542.06 128.584 542.134 128.474 542.227 128.38C542.319 128.287 542.43 128.213 542.551 128.163C542.672 128.113 542.803 128.087 542.934 128.087ZM550.858 128.087H553.143C553.691 128.087 554.141 128.536 554.141 129.084V131.374C554.141 131.922 553.691 132.372 553.143 132.372H550.858C550.31 132.372 549.86 131.922 549.86 131.374V129.089C549.859 128.958 549.885 128.827 549.935 128.706C549.984 128.584 550.058 128.474 550.151 128.38C550.243 128.287 550.354 128.213 550.475 128.163C550.596 128.113 550.727 128.087 550.858 128.087ZM558.781 128.087H561.067C561.619 128.087 562.069 128.536 562.069 129.084V131.374C562.069 131.922 561.619 132.372 561.067 132.372H558.781C558.233 132.372 557.784 131.922 557.784 131.374V129.089C557.784 128.536 558.233 128.087 558.781 128.087ZM550.572 110.164H552.857C553.405 110.164 553.854 110.614 553.854 111.162V113.447C553.854 113.712 553.749 113.965 553.562 114.152C553.375 114.339 553.122 114.445 552.857 114.445H550.572C550.024 114.445 549.574 113.995 549.574 113.447V111.162C549.574 111.031 549.599 110.901 549.649 110.78C549.699 110.659 549.773 110.548 549.866 110.456C549.958 110.363 550.069 110.289 550.19 110.239C550.311 110.189 550.441 110.164 550.572 110.164ZM558.496 110.164H560.782C561.33 110.164 561.779 110.614 561.779 111.162V113.447C561.779 113.712 561.674 113.965 561.487 114.152C561.3 114.339 561.046 114.445 560.782 114.445H558.496C557.944 114.445 557.494 113.995 557.494 113.447V111.162C557.497 110.898 557.603 110.645 557.791 110.458C557.978 110.271 558.231 110.166 558.496 110.164Z" fill="#6A0DAD"/>
<path fill-rule="evenodd" clip-rule="evenodd" d="M616.823 406.237H619.108C619.661 406.237 620.105 406.687 620.105 407.235V409.52C620.105 409.785 620 410.038 619.813 410.225C619.626 410.412 619.372 410.518 619.108 410.518H616.823C616.275 410.518 615.825 410.068 615.825 409.52V407.235C615.825 407.104 615.85 406.974 615.9 406.853C615.951 406.732 616.024 406.621 616.117 406.529C616.209 406.436 616.32 406.363 616.441 406.312C616.562 406.262 616.692 406.237 616.823 406.237ZM624.746 406.237H627.032C627.58 406.237 628.029 406.687 628.029 407.235V409.52C628.029 409.785 627.924 410.038 627.737 410.225C627.55 410.412 627.296 410.518 627.032 410.518H624.746C624.198 410.518 623.749 410.068 623.749 409.52V407.235C623.749 406.687 624.198 406.237 624.746 406.237ZM632.676 406.237H634.961C635.509 406.237 635.958 406.687 635.958 407.235V409.52C635.958 409.785 635.853 410.038 635.666 410.225C635.479 410.412 635.226 410.518 634.961 410.518H632.676C632.128 410.518 631.678 410.068 631.678 409.52V407.235C631.678 407.104 631.703 406.974 631.753 406.853C631.803 406.732 631.877 406.621 631.97 406.529C632.062 406.436 632.173 406.363 632.294 406.312C632.415 406.262 632.545 406.237 632.676 406.237ZM640.6 406.237H642.885C643.433 406.237 643.883 406.687 643.883 407.235V409.52C643.883 410.073 643.433 410.518 642.885 410.518H640.6C640.047 410.518 639.598 410.068 639.598 409.52V407.235C639.601 406.97 639.707 406.718 639.895 406.531C640.082 406.344 640.335 406.239 640.6 406.237ZM648.523 406.237H650.809C651.361 406.237 651.811 406.687 651.811 407.235V409.52C651.811 409.651 651.785 409.781 651.734 409.903C651.684 410.024 651.61 410.134 651.517 410.227C651.424 410.319 651.313 410.393 651.192 410.443C651.07 410.493 650.94 410.518 650.809 410.518H648.523C647.976 410.518 647.526 410.068 647.526 409.52V407.235C647.526 406.687 647.976 406.237 648.523 406.237ZM625.037 414.878H627.323C627.587 414.879 627.84 414.984 628.027 415.171C628.214 415.358 628.319 415.611 628.32 415.875V418.165C628.32 418.713 627.871 419.163 627.323 419.163H625.037C624.773 419.162 624.519 419.057 624.332 418.87C624.145 418.683 624.04 418.429 624.04 418.165V415.88C624.039 415.749 624.064 415.618 624.114 415.497C624.164 415.375 624.237 415.265 624.33 415.171C624.423 415.078 624.533 415.004 624.654 414.954C624.776 414.904 624.906 414.878 625.037 414.878ZM632.961 414.878H635.247C635.511 414.879 635.764 414.984 635.951 415.171C636.138 415.358 636.243 415.611 636.244 415.875V418.165C636.244 418.713 635.795 419.163 635.247 419.163H632.961C632.413 419.163 631.964 418.713 631.964 418.165V415.88C631.963 415.749 631.988 415.618 632.038 415.497C632.088 415.375 632.161 415.265 632.254 415.171C632.347 415.078 632.457 415.004 632.578 414.954C632.699 414.904 632.83 414.878 632.961 414.878ZM640.885 414.878H643.17C643.723 414.878 644.172 415.327 644.172 415.875V418.165C644.172 418.713 643.723 419.163 643.17 419.163H640.885C640.337 419.163 639.887 418.713 639.887 418.165V415.88C639.887 415.327 640.337 414.878 640.885 414.878ZM632.676 396.955H634.961C635.509 396.955 635.958 397.405 635.958 397.953V400.238C635.958 400.503 635.853 400.756 635.666 400.943C635.479 401.13 635.226 401.236 634.961 401.236H632.676C632.128 401.236 631.678 400.786 631.678 400.238V397.953C631.678 397.822 631.703 397.692 631.753 397.571C631.803 397.45 631.877 397.339 631.97 397.247C632.062 397.154 632.173 397.08 632.294 397.03C632.415 396.98 632.545 396.955 632.676 396.955ZM640.6 396.955H642.885C643.433 396.955 643.883 397.405 643.883 397.953V400.238C643.883 400.791 643.433 401.236 642.885 401.236H640.6C640.047 401.236 639.598 400.786 639.598 400.238V397.953C639.601 397.688 639.707 397.436 639.895 397.249C640.082 397.062 640.335 396.957 640.6 396.955Z" fill="#6A0DAD"/>
<path d="M247.095 453.722C209.84 413.499 198.22 357.298 195.032 317.238C191.571 273.744 197.024 239.339 197.078 239L194.642 238.762C194.585 239.106 189.088 273.763 192.563 317.545C195.776 358.003 207.52 414.778 245.236 455.503L247.095 453.722Z" fill="#C0C0C0"/>
<path d="M212.893 218.848C211.539 233.808 204.317 247.084 194.01 255.951C185.347 246.702 180.545 233.178 181.905 218.222C183.259 203.262 190.481 189.986 200.788 181.119C209.455 190.361 214.247 203.887 212.893 218.848ZM180.063 259.316C189.623 270.168 193.597 284.098 192.136 297.32C179.1 297.393 165.948 291.878 156.388 281.026C146.829 270.173 142.855 256.243 144.312 243.028C157.352 242.948 170.504 248.463 180.063 259.316ZM155.715 333.529C174.711 340.117 192.447 338.708 195.33 330.382C198.212 322.055 185.15 309.964 166.154 303.376C147.158 296.787 129.422 298.196 126.54 306.523C123.657 314.849 136.719 326.94 155.715 333.529ZM165.65 385.452C184.646 392.04 202.382 390.631 205.265 382.305C208.147 373.978 195.085 361.887 176.089 355.299C157.093 348.71 139.357 350.119 136.475 358.446C133.592 366.772 146.654 378.863 165.65 385.452Z" fill="white"/>
<path d="M200.626 293.177C207.727 281.089 218.71 272.524 230.312 268.789C233.304 279.705 231.563 292.817 224.462 304.905C217.362 316.994 206.379 325.558 194.777 329.293C191.777 318.374 193.525 305.266 200.626 293.177ZM210.922 347.028C217.842 334.837 228.717 326.097 240.273 322.165C243.452 333.004 241.91 346.115 234.99 358.306C228.071 370.496 217.196 379.237 205.633 383.165C202.464 372.34 203.999 359.225 210.922 347.028ZM207.516 415.319C213.735 415.258 219.156 417.943 222.683 422.242C218.678 426.616 212.952 429.415 206.739 429.479C200.52 429.54 195.099 426.855 191.572 422.556C195.57 418.178 201.296 415.38 207.516 415.319Z" fill="white"/>
<path d="M292.929 455.166C301.661 475.488 292.245 499.045 271.868 507.807C251.506 516.565 227.913 507.19 219.167 486.872C210.439 466.564 219.866 442.988 240.228 434.23C260.604 425.468 284.198 434.844 292.929 455.166Z" fill="url(#paint1_linear_5_37)"/>
<path d="M284.159 458.94C290.811 474.42 283.637 492.384 268.117 499.062C252.593 505.726 234.608 498.588 227.956 483.108C221.3 467.614 228.475 449.65 243.998 442.986C259.518 436.308 277.489 443.449 284.159 458.94Z" fill="white"/>
<path d="M266.292 486.25L268.516 491.153L263.996 493.155L261.838 488.376C257.244 490.097 252.348 490.634 249.013 489.837L249.078 483.403C252.072 484.023 255.857 483.768 259.244 482.639L255.935 475.324C250.391 476.351 244.054 477.211 241.223 470.953C239.119 466.318 240.793 460.797 247.57 456.847L245.373 451.984L249.893 449.983L252.051 454.762C255.555 453.522 259.253 452.943 262.424 453.373L262.606 459.756C259.726 459.501 257.04 459.793 254.668 460.524L258.043 467.964C263.572 466.877 269.81 466.075 272.602 472.248C274.656 476.818 273.015 482.283 266.292 486.25ZM253.022 468.882L250.203 462.668C248.044 464.258 247.681 465.936 248.331 467.39C249.03 468.909 250.755 469.158 253.022 468.882ZM265.565 476.015C264.876 474.477 263.186 474.234 260.944 474.424L263.686 480.469C265.728 478.989 266.199 477.409 265.565 476.015Z" fill="#6A0DAD"/>
<path d="M785.774 172.135C787.721 185.56 778.403 198.02 764.942 199.976C751.49 201.932 739.002 192.633 737.046 179.209C735.099 165.794 744.426 153.325 757.878 151.369C771.339 149.412 783.827 158.711 785.774 172.135Z" fill="#D9D9D9"/>
<path d="M779.98 172.979C781.463 183.205 774.361 192.708 764.108 194.2C753.854 195.684 744.333 188.601 742.85 178.375C741.366 168.14 748.468 158.637 758.721 157.154C768.975 155.661 778.487 162.744 779.98 172.979Z" fill="white"/>
<path d="M765.06 186.321L765.599 189.579L762.605 190.047L762.084 186.873C759.09 187.163 756.104 186.705 754.256 185.703L755.315 181.902C756.99 182.745 759.273 183.194 761.459 183.063L760.659 178.205C757.212 177.933 753.322 177.437 752.638 173.281C752.127 170.201 753.996 167.196 758.637 165.932L758.107 162.702L761.102 162.234L761.622 165.408C763.895 165.23 766.177 165.473 767.987 166.231L767.082 170.042C765.416 169.433 763.779 169.18 762.258 169.236L763.076 174.179C766.524 174.413 770.347 174.928 771.021 179.028C771.512 182.062 769.673 185.038 765.06 186.321ZM759.956 173.927L759.273 169.798C757.742 170.397 757.26 171.333 757.414 172.298C757.587 173.309 758.57 173.73 759.956 173.927ZM766.254 180.142C766.09 179.122 765.127 178.71 763.77 178.467L764.434 182.483C765.879 181.93 766.408 181.069 766.254 180.142Z" fill="#6A0DAD"/>
</g>
<defs>
<linearGradient id="paint0_linear_5_37" x1="168.836" y1="436.796" x2="318.938" y2="335.976" gradientUnits="userSpaceOnUse">
<stop stop-color="white"/>
<stop offset="1" stop-color="#EEEEEE"/>
</linearGradient>
<linearGradient id="paint1_linear_5_37" x1="279.693" y1="552.646" x2="222.401" y2="348.352" gradientUnits="userSpaceOnUse">
<stop stop-color="white"/>
<stop offset="1" stop-color="#EEEEEE"/>
</linearGradient>
<clipPath id="clip0_5_37">
<rect width="900" height="600" fill="white"/>
</clipPath>
</defs>
</svg>
